<svg width="15" height="17" viewBox="0 0 15 17" fill="none" xmlns="http://www.w3.org/2000/svg">
<g id="Group 14">
<path id="Path" d="M13.5398 15.9664L13.1827 15.0695C13.0021 14.6145 12.7215 14.2064 12.3624 13.8737L12.2971 13.8136C11.7318 13.2891 10.9891 12.9973 10.2177 12.9973H5.10196C4.33061 12.9973 3.58784 13.2891 3.02157 13.8125L2.95628 13.8737C2.59713 14.2064 2.31757 14.6145 2.13596 15.0695L1.77885 15.9664" stroke="white" stroke-width="1.77404" stroke-linecap="round" stroke-linejoin="round"/>
<path id="Path_2" d="M10.1848 2.81998C11.5794 4.21456 11.5794 6.47561 10.1848 7.87019C8.79022 9.26477 6.52917 9.26477 5.13459 7.87019C3.74001 6.47561 3.74001 4.21456 5.13459 2.81998C6.52917 1.4254 8.79022 1.4254 10.1848 2.81998" stroke="white" stroke-width="1.77404" stroke-linecap="round" stroke-linejoin="round"/>
</g>
</svg>
