<svg width="16" height="23" viewBox="0 0 16 23" fill="none" xmlns="http://www.w3.org/2000/svg">
<path fill-rule="evenodd" clip-rule="evenodd" d="M3.22222 2.20728C2.40866 2.20728 1.75 2.86593 1.75 3.6795V19.2351C1.75 20.0486 2.40866 20.7073 3.22222 20.7073H12.1111C12.9247 20.7073 13.5833 20.0486 13.5833 19.2351V3.6795C13.5833 2.86593 12.9247 2.20728 12.1111 2.20728H3.22222ZM0.25 3.6795C0.25 2.03751 1.58023 0.707275 3.22222 0.707275H12.1111C13.7531 0.707275 15.0833 2.03751 15.0833 3.6795V19.2351C15.0833 20.877 13.7531 22.2073 12.1111 22.2073H3.22222C1.58023 22.2073 0.25 20.877 0.25 19.2351V3.6795Z" fill="white"/>
<path fill-rule="evenodd" clip-rule="evenodd" d="M6.63893 17.571C6.63626 16.9994 7.1 16.5405 7.66559 16.5405C8.2323 16.5405 8.69448 16.9988 8.69448 17.5683C8.69448 18.1359 8.23425 18.5961 7.6667 18.5961C7.10006 18.5961 6.64039 18.1373 6.63893 17.571ZM6.96993 17.5713L6.63894 17.5737C6.63894 17.5728 6.63893 17.5719 6.63893 17.571C6.63893 17.5701 6.63892 17.5692 6.63892 17.5683H6.96871C6.96912 17.5693 6.96952 17.5703 6.96993 17.5713ZM7.19448 17.5697L6.96993 17.5713C7.08108 17.8464 7.35067 18.0405 7.66559 18.0405C7.40823 18.0405 7.19524 17.8319 7.19448 17.5697ZM7.19448 17.5683H7.38892L7.19448 17.5697C7.19448 17.5692 7.19448 17.5688 7.19448 17.5683ZM7.19448 17.5683C7.19448 17.3078 7.40522 17.0967 7.66559 17.0961C7.66596 17.0961 7.66633 17.0961 7.6667 17.0961C7.92577 17.0961 8.13599 17.3045 8.1389 17.5629C8.13892 17.5647 8.13892 17.5665 8.13892 17.5683C8.13791 17.8315 7.92426 18.0399 7.6667 18.0405M7.19448 17.5683H6.96871Z" fill="white"/>
<path fill-rule="evenodd" clip-rule="evenodd" d="M5.52783 4.79065C5.52783 4.37644 5.86362 4.04065 6.27783 4.04065H9.05561C9.46982 4.04065 9.80561 4.37644 9.80561 4.79065C9.80561 5.20486 9.46982 5.54065 9.05561 5.54065H6.27783C5.86362 5.54065 5.52783 5.20486 5.52783 4.79065Z" fill="white"/>
</svg>
