<svg width="20" height="20" viewBox="0 0 20 20" fill="none" xmlns="http://www.w3.org/2000/svg">
<path fill-rule="evenodd" clip-rule="evenodd" d="M0.205902 9.99991C0.205902 4.59034 4.59043 0.205811 10 0.205811C15.4096 0.205811 19.7941 4.59034 19.7941 9.99991C19.7941 11.6246 19.394 13.155 18.6941 14.5021L19.7704 18.8073C19.838 19.0779 19.7588 19.3642 19.5615 19.5614C19.3643 19.7587 19.078 19.838 18.8074 19.7703L14.5022 18.694C13.1551 19.3939 11.6247 19.794 10 19.794C4.59043 19.794 0.205902 15.4095 0.205902 9.99991ZM10 1.79401C5.46757 1.79401 1.7941 5.46748 1.7941 9.99991C1.7941 14.5323 5.46757 18.2058 10 18.2058C11.4566 18.2058 12.8213 17.8224 14.0072 17.1565C14.1839 17.0573 14.3919 17.0294 14.5886 17.0785L17.9086 17.9085L17.0786 14.5885C17.0294 14.3919 17.0574 14.1838 17.1566 14.0071C17.8225 12.8212 18.2059 11.4565 18.2059 9.99991C18.2059 5.46748 14.5324 1.79401 10 1.79401Z" fill="#61CDFF"/>
<path fill-rule="evenodd" clip-rule="evenodd" d="M9.2938 9.79154C9.68479 9.40179 10.3168 9.40217 10.7073 9.79268C11.0982 10.1836 11.0982 10.8164 10.7073 11.2073C10.3164 11.5982 9.68356 11.5982 9.29266 11.2073L9.28994 11.2046L9.28995 11.2046C8.90405 10.8147 8.90368 10.1869 9.28882 9.79655C9.2892 9.79617 9.28957 9.79579 9.28995 9.79541C9.29123 9.79411 9.29252 9.79283 9.2938 9.79154Z" fill="#61CDFF"/>
<path fill-rule="evenodd" clip-rule="evenodd" d="M5.2938 9.79154C5.68479 9.40179 6.31681 9.40217 6.70732 9.79268C7.09822 10.1836 7.09822 10.8164 6.70732 11.2073C6.31643 11.5982 5.68356 11.5982 5.29266 11.2073L5.28994 11.2046L5.28995 11.2046C4.90405 10.8147 4.90368 10.1869 5.28882 9.79655C5.2892 9.79617 5.28957 9.79579 5.28995 9.79541C5.29123 9.79411 5.29252 9.79283 5.2938 9.79154Z" fill="#61CDFF"/>
<path fill-rule="evenodd" clip-rule="evenodd" d="M13.2938 9.79154C13.6848 9.40179 14.3168 9.40217 14.7073 9.79268C15.0982 10.1836 15.0982 10.8164 14.7073 11.2073C14.3164 11.5982 13.6836 11.5982 13.2927 11.2073L13.2899 11.2046L13.29 11.2046C12.9041 10.8147 12.9037 10.1869 13.2888 9.79655C13.2892 9.79617 13.2896 9.79579 13.29 9.79541C13.2912 9.79411 13.2925 9.79283 13.2938 9.79154Z" fill="#61CDFF"/>
</svg>
