<svg width="20" height="20" viewBox="0 0 20 20" fill="none" xmlns="http://www.w3.org/2000/svg">
<path fill-rule="evenodd" clip-rule="evenodd" d="M10 1.75C5.44321 1.75 1.75 5.44321 1.75 10C1.75 14.5568 5.44321 18.25 10 18.25C14.5568 18.25 18.25 14.5568 18.25 10C18.25 5.44321 14.5568 1.75 10 1.75ZM10 0.25C4.61479 0.25 0.25 4.61479 0.25 10C0.25 15.3852 4.61479 19.75 10 19.75C15.3852 19.75 19.75 15.3852 19.75 10C19.75 4.61479 15.3852 0.25 10 0.25Z" fill="#61CDFF"/>
<path fill-rule="evenodd" clip-rule="evenodd" d="M10 5.25C10.4142 5.25 10.75 5.58579 10.75 6V14C10.75 14.4142 10.4142 14.75 10 14.75C9.58579 14.75 9.25 14.4142 9.25 14V6C9.25 5.58579 9.58579 5.25 10 5.25Z" fill="#61CDFF"/>
<path fill-rule="evenodd" clip-rule="evenodd" d="M6.46967 10.4697C6.76256 10.1768 7.23744 10.1768 7.53033 10.4697L10 12.9393L12.4697 10.4697C12.7626 10.1768 13.2374 10.1768 13.5303 10.4697C13.8232 10.7626 13.8232 11.2374 13.5303 11.5303L10.5303 14.5303C10.2374 14.8232 9.76256 14.8232 9.46967 14.5303L6.46967 11.5303C6.17678 11.2374 6.17678 10.7626 6.46967 10.4697Z" fill="#61CDFF"/>
</svg>
