<svg width="19" height="19" viewBox="0 0 19 19" fill="none" xmlns="http://www.w3.org/2000/svg">
<path fill-rule="evenodd" clip-rule="evenodd" d="M4.18872 13.1612C4.91828 12.4869 5.87582 12.1104 6.87118 12.1104H11.9869C12.9817 12.1104 13.9394 12.4865 14.6684 13.1623C14.6688 13.1626 14.6692 13.163 14.6696 13.1634L14.7343 13.223C15.1899 13.6449 15.5466 14.1634 15.7764 14.7423C15.7764 14.7424 15.7764 14.7423 15.7764 14.7423L16.1331 15.6383C16.3143 16.0934 16.0923 16.6093 15.6372 16.7905C15.182 16.9717 14.6662 16.7497 14.4849 16.2946L14.1275 15.3968C13.9962 15.066 13.792 14.7685 13.5298 14.5254C13.5295 14.5251 13.5292 14.5249 13.5289 14.5246L13.4651 14.4658L13.463 14.4639C13.0617 14.0915 12.5343 13.8844 11.9869 13.8844H6.87118C6.32481 13.8844 5.7977 14.0908 5.395 14.462L5.32824 14.5246C5.06646 14.7671 4.86219 15.0649 4.72915 15.3981C4.72911 15.3982 4.7292 15.3979 4.72915 15.3981L4.37218 16.2946C4.19095 16.7497 3.67508 16.9717 3.21995 16.7905C2.76481 16.6093 2.54277 16.0934 2.72399 15.6383L3.08109 14.7415C3.31093 14.1656 3.66528 13.6473 4.12068 13.225L4.18872 13.1612Z" fill="white"/>
<path fill-rule="evenodd" clip-rule="evenodd" d="M11.3268 3.44738C10.2787 2.3992 8.57924 2.3992 7.53106 3.44738C6.48288 4.49556 6.48288 6.19497 7.53106 7.24315C8.57924 8.29133 10.2787 8.29133 11.3268 7.24315C12.375 6.19497 12.375 4.49556 11.3268 3.44738ZM12.5813 2.19294C10.8403 0.451961 8.01761 0.451961 6.27662 2.19294C4.53564 3.93393 4.53564 6.7566 6.27662 8.49759C8.01761 10.2386 10.8403 10.2386 12.5813 8.49759C14.3222 6.7566 14.3222 3.93393 12.5813 2.19294Z" fill="white"/>
</svg>
